<mxfile host="app.diagrams.net" modified="2022-04-22T20:22:52.495Z" agent="5.0 (Windows)" etag="0dnKJ3pvXzar2_Qo5kj9" version="17.4.5" type="github">
  <diagram id="Klbo_Q1Ww2Q-FXg_sPQw" name="Page-1">
    <mxGraphModel dx="1129" dy="711" grid="1" gridSize="10" guides="1" tooltips="1" connect="1" arrows="1" fold="1" page="1" pageScale="1" pageWidth="827" pageHeight="1169" math="0" shadow="0">
      <root>
        <mxCell id="0" />
        <mxCell id="1" parent="0" />
        <mxCell id="4_pAs--_pv3BcC0bp1nY-1" value="Как менеджер я хочу иметь возможность отмечать, что оплата Клиентом произведена, чтобы Клиент не работал бесплатно" style="shape=note;strokeWidth=2;fontSize=12;size=20;whiteSpace=wrap;fillColor=#fff2cc;strokeColor=#d6b656;fontColor=#666600;spacing=0;labelBackgroundColor=none;" vertex="1" parent="1">
          <mxGeometry x="656" y="190" width="150" height="90" as="geometry" />
        </mxCell>
        <mxCell id="4_pAs--_pv3BcC0bp1nY-2" value="Я как менеджер не могу создать стандартный тариф больше 100 столиков и больше 1000000 оборота, чтобы в списке тарифов при указании значения больше этих остался только индивидуальный." style="shape=note;strokeWidth=2;fontSize=11;size=20;fillColor=#fff2cc;strokeColor=#d6b656;fontColor=#666600;spacing=0;labelBackgroundColor=none;whiteSpace=wrap;" vertex="1" parent="1">
          <mxGeometry x="374.5" y="190" width="161" height="110" as="geometry" />
        </mxCell>
        <mxCell id="4_pAs--_pv3BcC0bp1nY-3" value="Как представитель юр департамента я хочу иметь возможность поменять правила обработки перс данных в Системе, чтобы поддерживать их актуальность" style="shape=note;strokeWidth=2;fontSize=12;size=20;whiteSpace=wrap;fillColor=#fff2cc;strokeColor=#d6b656;fontColor=#666600;" vertex="1" parent="1">
          <mxGeometry x="650.5" y="1169" width="160" height="100" as="geometry" />
        </mxCell>
        <mxCell id="4_pAs--_pv3BcC0bp1nY-4" value="Как менеджер я хочу иметь возможность управлять тарифами Клиентов, чтобы подбирать наиболее выгодные для Компании условия." style="shape=note;strokeWidth=2;fontSize=11;size=20;fillColor=#fff2cc;strokeColor=#d6b656;fontColor=#666600;spacing=0;labelBackgroundColor=none;whiteSpace=wrap;" vertex="1" parent="1">
          <mxGeometry x="374.5" y="330" width="160" height="100" as="geometry" />
        </mxCell>
        <mxCell id="4_pAs--_pv3BcC0bp1nY-5" value="Как менеджер я хочу получать уведомления об окончании действия тарифа Клиента, чтобы не пропустить момент его оплаты" style="shape=note;strokeWidth=2;fontSize=11;size=20;fillColor=#fff2cc;strokeColor=#d6b656;fontColor=#666600;spacing=0;labelBackgroundColor=none;whiteSpace=wrap;" vertex="1" parent="1">
          <mxGeometry x="664" y="650" width="140" height="110" as="geometry" />
        </mxCell>
        <mxCell id="4_pAs--_pv3BcC0bp1nY-6" value="Как менеджер я хочу, чтобы Система отключала работу Клиента после истечения отмеченного в Системе оплаченного периода, чтобы клиент не работал бесплатно." style="shape=note;strokeWidth=2;fontSize=11;size=20;fillColor=#fff2cc;strokeColor=#d6b656;fontColor=#666600;spacing=0;labelBackgroundColor=none;whiteSpace=wrap;" vertex="1" parent="1">
          <mxGeometry x="650.5" y="420" width="161" height="110" as="geometry" />
        </mxCell>
        <mxCell id="4_pAs--_pv3BcC0bp1nY-7" value="Как менеджер, я хочу иметь возможность просмотреть список Клиентов, чтобы управлять ими." style="shape=note;strokeWidth=2;fontSize=11;size=20;fillColor=#fff2cc;strokeColor=#d6b656;fontColor=#666600;spacing=0;labelBackgroundColor=none;whiteSpace=wrap;" vertex="1" parent="1">
          <mxGeometry x="669" y="300" width="124" height="100" as="geometry" />
        </mxCell>
        <mxCell id="4_pAs--_pv3BcC0bp1nY-8" value="Как менеджер, я хочу посмотреть УЗ Клиента, чтобы узнать о нем информацию" style="shape=note;strokeWidth=2;fontSize=11;size=20;fillColor=#fff2cc;strokeColor=#d6b656;fontColor=#666600;spacing=0;labelBackgroundColor=none;whiteSpace=wrap;" vertex="1" parent="1">
          <mxGeometry x="669" y="550" width="130" height="90" as="geometry" />
        </mxCell>
        <mxCell id="4_pAs--_pv3BcC0bp1nY-9" value="Как менеджер, я хочу иметь возможность редактировать информацию о Клиенте, чтобы поддерживать ее в актуальном состоянии" style="shape=note;strokeWidth=2;fontSize=11;size=20;fillColor=#fff2cc;strokeColor=#d6b656;fontColor=#666600;spacing=0;labelBackgroundColor=none;whiteSpace=wrap;" vertex="1" parent="1">
          <mxGeometry x="661" y="1010" width="140" height="110" as="geometry" />
        </mxCell>
        <mxCell id="4_pAs--_pv3BcC0bp1nY-10" value="Как менеджер я могу поменять статус активности Клиента" style="shape=note;strokeWidth=2;fontSize=11;size=20;fillColor=#fff2cc;strokeColor=#d6b656;fontColor=#666600;spacing=0;labelBackgroundColor=none;whiteSpace=wrap;" vertex="1" parent="1">
          <mxGeometry x="664" y="890" width="140" height="110" as="geometry" />
        </mxCell>
        <mxCell id="4_pAs--_pv3BcC0bp1nY-11" value="Как менеджер я могу хотеть отключить Клиента окончательно или нет так что при деактивации я могу выбрать, оставлять бронирования активными или нет." style="shape=note;strokeWidth=2;fontSize=11;size=20;fillColor=#fff2cc;strokeColor=#d6b656;fontColor=#666600;spacing=0;labelBackgroundColor=none;whiteSpace=wrap;" vertex="1" parent="1">
          <mxGeometry x="645.5" y="770" width="170" height="110" as="geometry" />
        </mxCell>
        <mxCell id="4_pAs--_pv3BcC0bp1nY-13" value="Как менеджер я хочу авторизоваться, чтобы никто не получил доступ к управлению моими Клиентами" style="shape=note;strokeWidth=2;fontSize=11;size=20;fillColor=#fff2cc;strokeColor=#d6b656;fontColor=#666600;spacing=0;labelBackgroundColor=none;whiteSpace=wrap;" vertex="1" parent="1">
          <mxGeometry x="110" y="190" width="140" height="110" as="geometry" />
        </mxCell>
        <mxCell id="4_pAs--_pv3BcC0bp1nY-16" value="" style="edgeStyle=orthogonalEdgeStyle;rounded=0;orthogonalLoop=1;jettySize=auto;html=1;fontSize=12;" edge="1" parent="1" source="4_pAs--_pv3BcC0bp1nY-14" target="4_pAs--_pv3BcC0bp1nY-15">
          <mxGeometry relative="1" as="geometry" />
        </mxCell>
        <mxCell id="4_pAs--_pv3BcC0bp1nY-14" value="Авторизация" style="shape=note;strokeWidth=2;fontSize=14;size=20;whiteSpace=wrap;html=1;" vertex="1" parent="1">
          <mxGeometry x="120" y="70" width="110.00000000000001" height="80" as="geometry" />
        </mxCell>
        <mxCell id="4_pAs--_pv3BcC0bp1nY-18" value="" style="edgeStyle=orthogonalEdgeStyle;rounded=0;orthogonalLoop=1;jettySize=auto;html=1;fontSize=12;" edge="1" parent="1" source="4_pAs--_pv3BcC0bp1nY-15" target="4_pAs--_pv3BcC0bp1nY-17">
          <mxGeometry relative="1" as="geometry" />
        </mxCell>
        <mxCell id="4_pAs--_pv3BcC0bp1nY-15" value="Управление тарифами" style="shape=note;strokeWidth=2;fontSize=14;size=20;whiteSpace=wrap;html=1;" vertex="1" parent="1">
          <mxGeometry x="400" y="70" width="110.00000000000001" height="80" as="geometry" />
        </mxCell>
        <mxCell id="4_pAs--_pv3BcC0bp1nY-17" value="Управление клиентами" style="shape=note;strokeWidth=2;fontSize=14;size=20;whiteSpace=wrap;html=1;" vertex="1" parent="1">
          <mxGeometry x="683" y="70" width="110.00000000000001" height="80" as="geometry" />
        </mxCell>
        <mxCell id="4_pAs--_pv3BcC0bp1nY-19" style="edgeStyle=orthogonalEdgeStyle;rounded=0;orthogonalLoop=1;jettySize=auto;html=1;exitX=0.5;exitY=1;exitDx=0;exitDy=0;exitPerimeter=0;fontSize=12;" edge="1" parent="1" source="4_pAs--_pv3BcC0bp1nY-8" target="4_pAs--_pv3BcC0bp1nY-8">
          <mxGeometry relative="1" as="geometry" />
        </mxCell>
        <mxCell id="4_pAs--_pv3BcC0bp1nY-20" value="Как менеджер я могу назначать тарифы Клиентам, чтобы те пользовались Системой после оплаты услуг" style="shape=note;strokeWidth=2;fontSize=14;size=20;whiteSpace=wrap;fillColor=#fff2cc;strokeColor=#d6b656;fontColor=#666600;" vertex="1" parent="1">
          <mxGeometry x="380" y="460" width="150" height="110" as="geometry" />
        </mxCell>
        <mxCell id="4_pAs--_pv3BcC0bp1nY-21" value="Как менеджер я могу делать тарифы стандартными, чтобы они были доступны для просмотра на Сайте" style="shape=note;strokeWidth=2;fontSize=14;size=20;whiteSpace=wrap;fillColor=#fff2cc;strokeColor=#d6b656;fontColor=#666600;" vertex="1" parent="1">
          <mxGeometry x="380" y="600" width="150" height="100" as="geometry" />
        </mxCell>
        <mxCell id="4_pAs--_pv3BcC0bp1nY-22" value="" style="endArrow=none;html=1;rounded=0;fontSize=12;" edge="1" parent="1">
          <mxGeometry width="50" height="50" relative="1" as="geometry">
            <mxPoint x="10" y="1140" as="sourcePoint" />
            <mxPoint x="820" y="1140" as="targetPoint" />
          </mxGeometry>
        </mxCell>
        <mxCell id="4_pAs--_pv3BcC0bp1nY-23" value="MVP" style="text;html=1;strokeColor=none;fillColor=none;align=center;verticalAlign=middle;whiteSpace=wrap;rounded=0;labelBackgroundColor=none;fontSize=24;" vertex="1" parent="1">
          <mxGeometry x="20" y="635" width="60" height="30" as="geometry" />
        </mxCell>
        <mxCell id="4_pAs--_pv3BcC0bp1nY-26" value="Nice to have" style="text;html=1;strokeColor=none;fillColor=none;align=center;verticalAlign=middle;whiteSpace=wrap;rounded=0;labelBackgroundColor=none;fontSize=24;" vertex="1" parent="1">
          <mxGeometry x="20" y="1169" width="140" height="30" as="geometry" />
        </mxCell>
      </root>
    </mxGraphModel>
  </diagram>
</mxfile>
